<svg version="1.1" xmlns="http://www.w3.org/2000/svg" xmlns:xlink="http://www.w3.org/1999/xlink" width="16" height="16" viewBox="0,0,256,256"><g fill="#9e9e9e" fill-rule="none" stroke="none" stroke-width="1" stroke-linecap="butt" stroke-linejoin="miter" stroke-miterlimit="10" stroke-dasharray="" stroke-dashoffset="0" font-family="none" font-weight="none" font-size="none" text-anchor="none" style="mix-blend-mode: normal"><g transform="translate(-0.01475,13.72693) scale(16,16)"><path d="M8,3c-2.21961,0.00086 -4.17296,1.46489 -4.79664,3.59508c-0.62368,2.13019 0.23164,4.41654 2.1003,5.61436c1.86866,1.19782 4.3033,1.02033 5.97849,-0.43583c1.67519,-1.45617 2.18987,-3.84239 1.26385,-5.85961c-0.10197,-0.24811 0.01003,-0.53248 0.2538,-0.64443c0.24377,-0.11195 0.53245,-0.01159 0.6542,0.22743c1.11118,2.42079 0.49337,5.28435 -1.51708,7.03165c-2.01044,1.7473 -4.93216,1.95999 -7.17446,0.52227c-2.2423,-1.43772 -3.26831,-4.18162 -2.51943,-6.73781c0.74887,-2.55619 3.09334,-4.31266 5.75697,-4.31311z" fill-rule="evenodd"></path><path d="M8,4.466v-3.932c0.00004,-0.09698 0.05615,-0.18518 0.14398,-0.22631c0.08782,-0.04113 0.19151,-0.02775 0.26602,0.03431l2.36,1.966c0.12,0.1 0.12,0.284 0,0.384l-2.36,1.966c-0.07451,0.06207 -0.1782,0.07544 -0.26602,0.03431c-0.08782,-0.04113 -0.14394,-0.12933 -0.14398,-0.22631" fill-rule="nonzero"></path></g></g></svg>